<mxfile host="app.diagrams.net" modified="2020-09-29T07:32:54.784Z" agent="5.0 (Macintosh; Intel Mac OS X 10_14_6) AppleWebKit/537.36 (KHTML, like Gecko) Chrome/85.0.4183.121 Safari/537.36" etag="cm0-NO4yw8GCzLcWHVRt" version="13.7.5" type="github">
  <diagram id="C5RBs43oDa-KdzZeNtuy" name="Page-1">
    <mxGraphModel dx="815" dy="541" grid="1" gridSize="10" guides="1" tooltips="1" connect="1" arrows="1" fold="1" page="1" pageScale="1" pageWidth="827" pageHeight="1169" math="0" shadow="0">
      <root>
        <mxCell id="WIyWlLk6GJQsqaUBKTNV-0" />
        <mxCell id="WIyWlLk6GJQsqaUBKTNV-1" parent="WIyWlLk6GJQsqaUBKTNV-0" />
        <mxCell id="Vo4J9YQkVo1SOK-TfDwk-4" style="edgeStyle=orthogonalEdgeStyle;rounded=0;orthogonalLoop=1;jettySize=auto;html=1;exitX=1;exitY=0.5;exitDx=0;exitDy=0;entryX=0;entryY=0.5;entryDx=0;entryDy=0;" edge="1" parent="WIyWlLk6GJQsqaUBKTNV-1" source="Vo4J9YQkVo1SOK-TfDwk-0" target="Vo4J9YQkVo1SOK-TfDwk-1">
          <mxGeometry relative="1" as="geometry" />
        </mxCell>
        <mxCell id="Vo4J9YQkVo1SOK-TfDwk-0" value="需求" style="rounded=0;whiteSpace=wrap;html=1;" vertex="1" parent="WIyWlLk6GJQsqaUBKTNV-1">
          <mxGeometry x="120" y="190" width="120" height="60" as="geometry" />
        </mxCell>
        <mxCell id="Vo4J9YQkVo1SOK-TfDwk-5" value="" style="edgeStyle=orthogonalEdgeStyle;rounded=0;orthogonalLoop=1;jettySize=auto;html=1;" edge="1" parent="WIyWlLk6GJQsqaUBKTNV-1" source="Vo4J9YQkVo1SOK-TfDwk-1" target="Vo4J9YQkVo1SOK-TfDwk-2">
          <mxGeometry relative="1" as="geometry" />
        </mxCell>
        <mxCell id="Vo4J9YQkVo1SOK-TfDwk-1" value="设计" style="rounded=0;whiteSpace=wrap;html=1;" vertex="1" parent="WIyWlLk6GJQsqaUBKTNV-1">
          <mxGeometry x="260" y="190" width="120" height="60" as="geometry" />
        </mxCell>
        <mxCell id="Vo4J9YQkVo1SOK-TfDwk-2" value="开发&lt;br&gt;&lt;br&gt;&lt;br&gt;&lt;br&gt;&lt;br&gt;&lt;br&gt;&lt;br&gt;&lt;br&gt;&lt;br&gt;&lt;br&gt;&lt;br&gt;" style="rounded=0;whiteSpace=wrap;html=1;" vertex="1" parent="WIyWlLk6GJQsqaUBKTNV-1">
          <mxGeometry x="447.5" y="110" width="150" height="220" as="geometry" />
        </mxCell>
        <mxCell id="Vo4J9YQkVo1SOK-TfDwk-8" style="edgeStyle=orthogonalEdgeStyle;rounded=0;orthogonalLoop=1;jettySize=auto;html=1;exitX=0.5;exitY=1;exitDx=0;exitDy=0;startArrow=classic;startFill=1;" edge="1" parent="WIyWlLk6GJQsqaUBKTNV-1" source="Vo4J9YQkVo1SOK-TfDwk-3" target="Vo4J9YQkVo1SOK-TfDwk-7">
          <mxGeometry relative="1" as="geometry" />
        </mxCell>
        <mxCell id="Vo4J9YQkVo1SOK-TfDwk-3" value="前" style="rounded=0;whiteSpace=wrap;html=1;" vertex="1" parent="WIyWlLk6GJQsqaUBKTNV-1">
          <mxGeometry x="465" y="170" width="115" height="20" as="geometry" />
        </mxCell>
        <mxCell id="Vo4J9YQkVo1SOK-TfDwk-7" value="后" style="rounded=0;whiteSpace=wrap;html=1;" vertex="1" parent="WIyWlLk6GJQsqaUBKTNV-1">
          <mxGeometry x="465" y="250" width="115" height="20" as="geometry" />
        </mxCell>
      </root>
    </mxGraphModel>
  </diagram>
</mxfile>
